<?xml version="1.0" standalone="no"?>
<!DOCTYPE svg PUBLIC "-//W3C//DTD SVG 20010904//EN"
 "http://www.w3.org/TR/2001/REC-SVG-20010904/DTD/svg10.dtd">
<svg version="1.0" xmlns="http://www.w3.org/2000/svg"
 width="256.000000pt" height="256.000000pt" viewBox="0 0 256.000000 256.000000"
 preserveAspectRatio="xMidYMid meet">
<metadata>
Created by potrace 1.12, written by Peter Selinger 2001-2015
</metadata>
<g transform="translate(0.000000,256.000000) scale(0.100000,-0.100000)"
fill="#000000" stroke="none">
<path d="M526 2542 c-11 -10 -36 -32 -57 -50 -42 -37 -83 -114 -94 -177 -6
-31 -23 -56 -75 -110 -81 -84 -146 -182 -210 -318 -77 -162 -104 -300 -80
-419 23 -121 79 -193 178 -231 47 -19 171 -23 237 -7 22 5 41 7 43 5 9 -8 -70
-94 -82 -89 -27 10 -114 -154 -193 -366 -52 -139 -78 -247 -55 -225 6 6 49 81
97 168 48 86 88 157 90 157 2 0 1 -69 -2 -154 -4 -102 -2 -155 5 -160 20 -12
37 5 53 52 9 26 49 144 89 262 40 118 74 217 77 220 2 2 8 -2 13 -10 7 -11 15
-12 50 -1 54 16 111 68 149 137 17 30 33 54 36 54 9 0 -55 -132 -80 -165 -38
-49 -91 -78 -130 -71 -23 5 -36 2 -45 -9 -17 -21 -9 -26 44 -32 100 -12 172
57 247 237 19 44 37 80 42 80 4 0 7 -60 7 -132 0 -253 33 -565 80 -750 41
-163 111 -308 188 -390 45 -48 45 -48 110 -48 l66 0 -45 29 c-52 34 -97 80
-133 138 -14 24 -26 44 -26 46 0 3 23 7 51 10 28 4 67 15 86 27 19 11 38 20
43 20 5 0 22 -23 36 -52 33 -65 69 -121 112 -175 30 -38 39 -43 74 -43 l39 0
-50 58 c-28 32 -51 63 -51 69 0 6 -4 13 -9 15 -17 6 -103 173 -135 263 -87
240 -159 707 -182 1188 l-7 138 32 40 c48 59 84 146 89 211 4 48 0 67 -22 112
-23 46 -25 58 -15 80 7 14 15 26 18 26 4 0 22 -18 41 -41 19 -23 40 -47 46
-53 11 -11 53 -99 76 -156 23 -57 46 -183 56 -300 36 -410 45 -543 47 -700 3
-157 5 -183 29 -255 28 -87 99 -216 140 -254 14 -13 23 -28 19 -34 -3 -6 -1
-7 4 -4 6 4 26 -7 44 -23 125 -110 353 -161 559 -126 112 20 164 41 156 63 -3
8 -6 19 -6 24 0 13 -35 11 -115 -6 -83 -17 -223 -19 -297 -4 -206 43 -386 220
-434 425 -12 54 -15 114 -12 294 7 513 1 617 -47 813 -41 168 -99 268 -221
382 l-64 60 14 53 c8 29 18 86 21 127 l7 75 -46 0 -46 0 0 -61 c0 -71 -18
-149 -34 -149 -23 0 -33 16 -39 60 -3 25 -11 69 -17 98 l-12 52 -44 0 c-24 0
-44 -2 -44 -3 0 -2 9 -39 20 -82 11 -43 19 -80 17 -82 -2 -1 -28 1 -58 7 -30
5 -99 11 -153 12 l-99 3 -13 45 c-13 41 -12 46 4 57 63 44 65 42 -63 42 -97
-1 -124 -4 -139 -17z m464 -217 c25 -4 48 -12 52 -19 4 -6 8 -41 8 -78 0 -67
0 -67 -35 -84 -40 -18 -92 -78 -123 -139 l-20 -40 -11 28 c-6 16 -11 36 -11
46 0 55 -51 122 -108 142 -44 15 -108 -16 -143 -71 -26 -40 -27 -40 -33 -15
-3 13 -20 40 -36 59 -35 39 -93 55 -132 36 -14 -7 -7 3 17 24 50 45 164 102
230 115 53 10 268 8 345 -4z m-706 -413 c3 -27 10 -52 14 -56 4 -4 7 -11 7
-16 0 -16 60 -60 91 -66 45 -8 98 18 133 67 l31 42 15 -35 c51 -124 190 -114
250 17 13 30 26 55 29 55 2 0 4 -25 5 -55 0 -31 7 -70 15 -89 13 -31 12 -35
-12 -67 -126 -168 -253 -305 -327 -353 -105 -69 -255 -84 -350 -35 -90 46
-131 179 -101 326 21 104 69 221 102 247 15 12 38 31 53 43 14 13 29 23 32 23
4 0 9 -22 13 -48z m799 -329 c4 -71 10 -175 13 -233 7 -104 6 -106 -21 -138
-35 -42 -75 -44 -104 -3 -18 25 -21 45 -22 163 -1 119 2 144 25 220 30 98 36
105 97 117 3 0 9 -56 12 -126z m-261 -135 c-55 -112 -117 -222 -137 -246 -52
-60 -125 -94 -125 -58 0 8 14 52 32 98 28 74 41 93 122 179 50 52 116 127 146
166 30 38 57 69 58 67 2 -1 -41 -94 -96 -206z m307 -410 c7 -62 17 -135 23
-161 9 -43 8 -51 -14 -82 -44 -66 -108 -65 -150 3 -20 33 -35 156 -37 300 -1
39 1 42 18 32 27 -14 81 -12 111 5 14 8 27 14 30 15 3 0 12 -51 19 -112z m69
-418 c12 -60 34 -146 48 -191 25 -78 25 -81 7 -101 -26 -28 -67 -48 -102 -48
-30 0 -68 35 -95 89 -15 29 -55 197 -65 275 l-7 52 55 -4 c42 -2 65 2 91 16
19 11 37 20 40 21 3 0 15 -48 28 -109z"/>
</g>
</svg>
