<?xml version="1.0" encoding="UTF-8" standalone="no"?>
<!-- Created with Inkscape (http://www.inkscape.org/) -->

<svg
   xmlns:dc="http://purl.org/dc/elements/1.1/"
   xmlns:cc="http://creativecommons.org/ns#"
   xmlns:rdf="http://www.w3.org/1999/02/22-rdf-syntax-ns#"
   xmlns:svg="http://www.w3.org/2000/svg"
   xmlns="http://www.w3.org/2000/svg"
   xmlns:sodipodi="http://sodipodi.sourceforge.net/DTD/sodipodi-0.dtd"
   xmlns:inkscape="http://www.inkscape.org/namespaces/inkscape"
   width="160.72878mm"
   height="152.99017mm"
   viewBox="0 0 569.51141 542.09116"
   id="svg2"
   version="1.1"
   inkscape:version="0.91 r13725"
   sodipodi:docname="FirefoxIcon.svg">
  <defs
     id="defs4">
    <radialGradient
       id="radialGradient3346"
       spreadMethod="pad"
       gradientTransform="matrix(51.12198,0,0,-50.80341,-230.4174,-797.71722)"
       gradientUnits="userSpaceOnUse"
       r="4.2149401"
       cy="-25.759769"
       cx="8.37988"
       fy="-25.759769"
       fx="8.37988">
      <stop
         id="stop3348"
         offset="0"
         style="stop-opacity:1;stop-color:#51b1e7" />
      <stop
         id="stop3350"
         offset="1"
         style="stop-opacity:1;stop-color:#222c5d" />
    </radialGradient>
    <radialGradient
       id="radialGradient3354"
       spreadMethod="pad"
       gradientTransform="matrix(39.32283,0,0,-39.16599,-106.45613,-518.46716)"
       gradientUnits="userSpaceOnUse"
       r="5.61165"
       cy="-27.06152"
       cx="7.6660199"
       fy="-27.06152"
       fx="7.6660199">
      <stop
         id="stop3356"
         offset="0"
         style="stop-opacity:1;stop-color:#3a85c3" />
      <stop
         id="stop3358"
         offset="1"
         style="stop-opacity:1;stop-color:#151723" />
    </radialGradient>
    <linearGradient
       id="linearGradient3364"
       spreadMethod="pad"
       gradientTransform="matrix(15.28743,0,0,-16.0154,136.25641,14.19536)"
       gradientUnits="userSpaceOnUse"
       y2="-25.798519"
       x2="-4.8798099"
       y1="-16.45801"
       x1="1.09326">
      <stop
         id="stop3366"
         offset="0"
         style="stop-opacity:1;stop-color:#ef571b" />
      <stop
         id="stop3368"
         offset="1"
         style="stop-opacity:1;stop-color:#ab2421" />
    </linearGradient>
    <linearGradient
       id="linearGradient3374"
       spreadMethod="pad"
       gradientTransform="matrix(2.3698,0,0,-10.39659,300.96265,155.11229)"
       gradientUnits="userSpaceOnUse"
       y2="-29.336809"
       x2="24.26726"
       y1="-22.317381"
       x1="23.452641">
      <stop
         id="stop3376"
         offset="0"
         style="stop-opacity:1;stop-color:#f4702a" />
      <stop
         id="stop3378"
         offset="1"
         style="stop-opacity:1;stop-color:#f8ea15" />
    </linearGradient>
    <linearGradient
       id="linearGradient3382"
       spreadMethod="pad"
       gradientTransform="matrix(54.7749,0,0,-39.16513,-268.64502,-531.39844)"
       gradientUnits="userSpaceOnUse"
       y2="-22.37674"
       x2="4.2685399"
       y1="-22.338869"
       x1="12.64209">
      <stop
         id="stop3384"
         offset="0"
         style="stop-opacity:1;stop-color:#f4702a" />
      <stop
         id="stop3386"
         offset="0.32671"
         style="stop-opacity:1;stop-color:#f4702a" />
      <stop
         id="stop3388"
         offset="0.75"
         style="stop-opacity:1;stop-color:#b41d23" />
      <stop
         id="stop3390"
         offset="1"
         style="stop-opacity:1;stop-color:#b41d23" />
    </linearGradient>
    <linearGradient
       id="linearGradient3394"
       spreadMethod="pad"
       gradientTransform="matrix(7.9183,0,0,-18.31259,245.97043,-40.71307)"
       gradientUnits="userSpaceOnUse"
       y2="-23.61578"
       x2="20.53043"
       y1="-18.03223"
       x1="14.57617">
      <stop
         id="stop3396"
         offset="0"
         style="stop-opacity:1;stop-color:#f4702a" />
      <stop
         id="stop3398"
         offset="1"
         style="stop-opacity:1;stop-color:#f8ea15" />
    </linearGradient>
    <linearGradient
       id="linearGradient3402"
       spreadMethod="pad"
       gradientTransform="matrix(23.09306,0,0,-19.03925,73.38033,-66.6691)"
       gradientUnits="userSpaceOnUse"
       y2="-20.26753"
       x2="13.67409"
       y1="-15.8623"
       x1="6.1982398">
      <stop
         id="stop3404"
         offset="0"
         style="stop-opacity:1;stop-color:#de3c21" />
      <stop
         id="stop3406"
         offset="0.5"
         style="stop-opacity:1;stop-color:#fbc21f" />
      <stop
         id="stop3408"
         offset="1"
         style="stop-opacity:1;stop-color:#faf9a6" />
    </linearGradient>
    <linearGradient
       id="linearGradient3412"
       spreadMethod="pad"
       gradientTransform="matrix(3.17247,0,0,-9.89137,289.81943,157.09485)"
       gradientUnits="userSpaceOnUse"
       y2="-22.71619"
       x2="14.48489"
       y1="-15.4209"
       x1="13.89893">
      <stop
         id="stop3414"
         offset="0"
         style="stop-opacity:1;stop-color:#f4702a" />
      <stop
         id="stop3416"
         offset="1"
         style="stop-opacity:1;stop-color:#f8ea15" />
    </linearGradient>
    <linearGradient
       id="linearGradient3420"
       spreadMethod="pad"
       gradientTransform="matrix(8.49863,0,0,-7.10045,208.43312,245.50237)"
       gradientUnits="userSpaceOnUse"
       y2="-43.653702"
       x2="-9.3002501"
       y1="-38.751949"
       x1="-11.96777">
      <stop
         id="stop3422"
         offset="0"
         style="stop-opacity:1;stop-color:#ee531b" />
      <stop
         id="stop3424"
         offset="1"
         style="stop-opacity:1;stop-color:#f6d4a0" />
    </linearGradient>
    <linearGradient
       id="linearGradient3428"
       spreadMethod="pad"
       gradientTransform="matrix(6.01892,0,0,-6.78339,237.32146,247.01984)"
       gradientUnits="userSpaceOnUse"
       y2="-39.770031"
       x2="-17.72328"
       y1="-32.173828"
       x1="-14.14014">
      <stop
         id="stop3430"
         offset="0"
         style="stop-opacity:1;stop-color:#de461f" />
      <stop
         id="stop3432"
         offset="1"
         style="stop-opacity:1;stop-color:#91191e" />
    </linearGradient>
    <linearGradient
       id="linearGradient3436"
       spreadMethod="pad"
       gradientTransform="matrix(5.93228,0,0,-3.92044,239.12523,311.4967)"
       gradientUnits="userSpaceOnUse"
       y2="-39.275391"
       x2="-10.22168"
       y1="-39.275391"
       x1="-18.536619">
      <stop
         id="stop3438"
         offset="0"
         style="stop-opacity:1;stop-color:#efcb98" />
      <stop
         id="stop3440"
         offset="1"
         style="stop-opacity:1;stop-color:#faf9a6" />
    </linearGradient>
    <linearGradient
       id="linearGradient3446"
       spreadMethod="pad"
       gradientTransform="matrix(2.91757,0,0,-10.61356,263.12952,143.46811)"
       gradientUnits="userSpaceOnUse"
       y2="-27.682711"
       x2="-60.08807"
       y1="-18.112301"
       x1="-58.724609">
      <stop
         id="stop3448"
         offset="0"
         style="stop-opacity:1;stop-color:#ef571b" />
      <stop
         id="stop3450"
         offset="1"
         style="stop-opacity:1;stop-color:#ab2421" />
    </linearGradient>
    <linearGradient
       id="linearGradient3456"
       spreadMethod="pad"
       gradientTransform="matrix(8.54524,0,0,-2.56531,217.37624,331.27255)"
       gradientUnits="userSpaceOnUse"
       y2="-13.24753"
       x2="1.13449"
       y1="-13.42773"
       x1="-3.8867199">
      <stop
         id="stop3458"
         offset="0"
         style="stop-opacity:1;stop-color:#ee531b" />
      <stop
         id="stop3460"
         offset="1"
         style="stop-opacity:1;stop-color:#f6d4a0" />
    </linearGradient>
    <linearGradient
       id="linearGradient3464"
       spreadMethod="pad"
       gradientTransform="matrix(9.94395,0,0,-7.99263,179.67209,216.81993)"
       gradientUnits="userSpaceOnUse"
       y2="-28.45645"
       x2="-19.743389"
       y1="-35.817379"
       x1="-15.17773">
      <stop
         id="stop3466"
         offset="0"
         style="stop-opacity:1;stop-color:#f25a1c" />
      <stop
         id="stop3468"
         offset="0.19666"
         style="stop-opacity:1;stop-color:#f25a1c" />
      <stop
         id="stop3470"
         offset="1"
         style="stop-opacity:1;stop-color:#f8ea15" />
    </linearGradient>
    <linearGradient
       id="linearGradient3474"
       spreadMethod="pad"
       gradientTransform="matrix(5.96114,0,0,-10.38142,222.61082,168.7533)"
       gradientUnits="userSpaceOnUse"
       y2="-41.001949"
       x2="-33.829472"
       y1="-36.40723"
       x1="-34.025879">
      <stop
         id="stop3476"
         offset="0"
         style="stop-opacity:1;stop-color:#ee531b" />
      <stop
         id="stop3478"
         offset="1"
         style="stop-opacity:1;stop-color:#f6d4a0" />
    </linearGradient>
    <linearGradient
       id="linearGradient3482"
       spreadMethod="pad"
       gradientTransform="matrix(6.61578,0,0,-17.06166,213.87437,-6.31587)"
       gradientUnits="userSpaceOnUse"
       y2="-20.27902"
       x2="-28.662411"
       y1="-26.855471"
       x1="-32.92432">
      <stop
         id="stop3484"
         offset="0"
         style="stop-opacity:1;stop-color:#f2521e" />
      <stop
         id="stop3486"
         offset="1"
         style="stop-opacity:1;stop-color:#f8ea15" />
    </linearGradient>
    <linearGradient
       id="linearGradient3490"
       spreadMethod="pad"
       gradientTransform="matrix(5.67361,0,0,-10.04199,228.0296,164.92323)"
       gradientUnits="userSpaceOnUse"
       y2="-24.209431"
       x2="-37.865452"
       y1="-31.957029"
       x1="-30.213381">
      <stop
         id="stop3492"
         offset="0"
         style="stop-opacity:1;stop-color:#f4702a" />
      <stop
         id="stop3494"
         offset="1"
         style="stop-opacity:1;stop-color:#f8ea15" />
    </linearGradient>
    <linearGradient
       id="linearGradient3498"
       spreadMethod="pad"
       gradientTransform="matrix(4.53276,0,0,-5.74251,238.18839,269.1824)"
       gradientUnits="userSpaceOnUse"
       y2="-31.54538"
       x2="-51.383011"
       y1="-39.330078"
       x1="-45.37402">
      <stop
         id="stop3500"
         offset="0"
         style="stop-opacity:1;stop-color:#f4702a" />
      <stop
         id="stop3502"
         offset="1"
         style="stop-opacity:1;stop-color:#f8ea15" />
    </linearGradient>
    <linearGradient
       id="linearGradient3506"
       spreadMethod="pad"
       gradientTransform="matrix(5.1335,0,0,-11.34865,230.95526,119.52104)"
       gradientUnits="userSpaceOnUse"
       y2="-19.851959"
       x2="-43.989521"
       y1="-13.39746"
       x1="-40.120121">
      <stop
         id="stop3508"
         offset="0"
         style="stop-opacity:1;stop-color:#ef571b" />
      <stop
         id="stop3510"
         offset="1"
         style="stop-opacity:1;stop-color:#ab2421" />
    </linearGradient>
    <linearGradient
       id="linearGradient3514"
       spreadMethod="pad"
       gradientTransform="matrix(4.83058,0,0,-8.82098,239.15665,175.57478)"
       gradientUnits="userSpaceOnUse"
       y2="-8.8489504"
       x2="-36.3494"
       y1="-16.67285"
       x1="-38.68652">
      <stop
         id="stop3516"
         offset="0"
         style="stop-opacity:1;stop-color:#f25a1c" />
      <stop
         id="stop3518"
         offset="0.19666"
         style="stop-opacity:1;stop-color:#f25a1c" />
      <stop
         id="stop3520"
         offset="1"
         style="stop-opacity:1;stop-color:#f8ea15" />
    </linearGradient>
    <linearGradient
       id="linearGradient3524"
       spreadMethod="pad"
       gradientTransform="matrix(5.57091,0,0,-7.58522,230.15207,203.18773)"
       gradientUnits="userSpaceOnUse"
       y2="-12.78491"
       x2="-35.618771"
       y1="-6.63379"
       x1="-30.144039">
      <stop
         id="stop3526"
         offset="0"
         style="stop-opacity:1;stop-color:#ef571b" />
      <stop
         id="stop3528"
         offset="1"
         style="stop-opacity:1;stop-color:#ab2421" />
    </linearGradient>
    <linearGradient
       id="linearGradient3532"
       spreadMethod="pad"
       gradientTransform="matrix(2.66957,0,0,-4.93924,263.02097,267.06696)"
       gradientUnits="userSpaceOnUse"
       y2="-3.3313"
       x2="-72.520279"
       y1="-9.48242"
       x1="-77.271973">
      <stop
         id="stop3534"
         offset="0"
         style="stop-opacity:1;stop-color:#f25a1c" />
      <stop
         id="stop3536"
         offset="0.19666"
         style="stop-opacity:1;stop-color:#f25a1c" />
      <stop
         id="stop3538"
         offset="1"
         style="stop-opacity:1;stop-color:#f8ea15" />
    </linearGradient>
    <linearGradient
       id="linearGradient3542"
       spreadMethod="pad"
       gradientTransform="matrix(13.32184,0,0,-4.20461,162.8423,289.41464)"
       gradientUnits="userSpaceOnUse"
       y2="-12.058"
       x2="-3.8822"
       y1="-10.90137"
       x1="4.2080102">
      <stop
         id="stop3544"
         offset="0"
         style="stop-opacity:1;stop-color:#de461f" />
      <stop
         id="stop3546"
         offset="1"
         style="stop-opacity:1;stop-color:#91191e" />
    </linearGradient>
    <linearGradient
       id="linearGradient3550"
       spreadMethod="pad"
       gradientTransform="matrix(7.4025,0,0,-5.48088,216.54295,250.24515)"
       gradientUnits="userSpaceOnUse"
       y2="-2.5172701"
       x2="-21.30493"
       y1="-1.56836"
       x1="-12.71143">
      <stop
         id="stop3552"
         offset="0"
         style="stop-opacity:1;stop-color:#f4702a" />
      <stop
         id="stop3554"
         offset="0.32671"
         style="stop-opacity:1;stop-color:#f4702a" />
      <stop
         id="stop3556"
         offset="0.75"
         style="stop-opacity:1;stop-color:#b41d23" />
      <stop
         id="stop3558"
         offset="1"
         style="stop-opacity:1;stop-color:#b41d23" />
    </linearGradient>
    <linearGradient
       id="linearGradient3562"
       spreadMethod="pad"
       gradientTransform="matrix(12.17407,0,0,-3.08809,177.63647,306.96375)"
       gradientUnits="userSpaceOnUse"
       y2="13.4752"
       x2="6.70999"
       y1="13.54395"
       x1="-3.2573199">
      <stop
         id="stop3564"
         offset="0"
         style="stop-opacity:1;stop-color:#f4702a" />
      <stop
         id="stop3566"
         offset="1"
         style="stop-opacity:1;stop-color:#f8ea15" />
    </linearGradient>
    <linearGradient
       id="linearGradient3570"
       spreadMethod="pad"
       gradientTransform="matrix(8.12469,0,0,-3.02483,205.20522,340.08795)"
       gradientUnits="userSpaceOnUse"
       y2="-68.636703"
       x2="-16.13673"
       y1="-58.009769"
       x1="-18.515141">
      <stop
         id="stop3572"
         offset="0"
         style="stop-opacity:1;stop-color:#ee531b" />
      <stop
         id="stop3574"
         offset="1"
         style="stop-opacity:1;stop-color:#f6d4a0" />
    </linearGradient>
    <linearGradient
       id="linearGradient3578"
       spreadMethod="pad"
       gradientTransform="matrix(19.0999,0,0,-17.12614,121.49928,7.56142)"
       gradientUnits="userSpaceOnUse"
       y2="-32.914871"
       x2="10.53322"
       y1="-26.120119"
       x1="10.87256">
      <stop
         id="stop3580"
         offset="0"
         style="stop-opacity:1;stop-color:#f4702a" />
      <stop
         id="stop3582"
         offset="1"
         style="stop-opacity:1;stop-color:#f8ea15" />
    </linearGradient>
    <linearGradient
       id="linearGradient3586"
       spreadMethod="pad"
       gradientTransform="matrix(5.6841,0,0,-19.22408,267.77887,-55.83174)"
       gradientUnits="userSpaceOnUse"
       y2="-27.857929"
       x2="18.91025"
       y1="-19.693359"
       x1="17.630859">
      <stop
         id="stop3588"
         offset="0"
         style="stop-opacity:1;stop-color:#f4702a" />
      <stop
         id="stop3590"
         offset="1"
         style="stop-opacity:1;stop-color:#f8ea15" />
    </linearGradient>
    <linearGradient
       id="linearGradient3594"
       spreadMethod="pad"
       gradientTransform="matrix(5.42935,0,0,-13.78607,228.09827,65.174)"
       gradientUnits="userSpaceOnUse"
       y2="-15.49803"
       x2="-35.833858"
       y1="-22.484381"
       x1="-41.377441">
      <stop
         id="stop3596"
         offset="0"
         style="stop-opacity:1;stop-color:#f2521e" />
      <stop
         id="stop3598"
         offset="1"
         style="stop-opacity:1;stop-color:#f8ea15" />
    </linearGradient>
  </defs>
  <sodipodi:namedview
     id="base"
     pagecolor="#ffffff"
     bordercolor="#666666"
     borderopacity="1.0"
     inkscape:pageopacity="0.0"
     inkscape:pageshadow="2"
     inkscape:zoom="0.35"
     inkscape:cx="299.04143"
     inkscape:cy="45.331279"
     inkscape:document-units="px"
     inkscape:current-layer="layer1"
     showgrid="false"
     fit-margin-top="0"
     fit-margin-left="0"
     fit-margin-right="0"
     fit-margin-bottom="0"
     inkscape:window-width="1920"
     inkscape:window-height="1028"
     inkscape:window-x="-8"
     inkscape:window-y="-8"
     inkscape:window-maximized="1" />
  <metadata
     id="metadata7">
    <rdf:RDF>
      <cc:Work
         rdf:about="">
        <dc:format>image/svg+xml</dc:format>
        <dc:type
           rdf:resource="http://purl.org/dc/dcmitype/StillImage" />
        <dc:title></dc:title>
      </cc:Work>
    </rdf:RDF>
  </metadata>
  <g
     inkscape:label="Layer 1"
     inkscape:groupmode="layer"
     id="layer1"
     transform="translate(-25.958575,-35.602323)">
    <g
       transform="matrix(1.25,0,0,-1.25,65.50875,803.79141)"
       inkscape:label="firefox"
       id="g3344">
      <path
         inkscape:connector-curvature="0"
         id="path3352"
         style="fill:url(#radialGradient3346);fill-opacity:1;fill-rule:nonzero;stroke:none"
         d="m 407.64941,403.3252 c 0,116.65918 -95.15625,211.22607 -212.54931,211.22607 -117.38574,0 -212.54932,-94.56689 -212.54932,-211.22607 0,-116.6504 95.16358,-211.22266 212.54932,-211.22266 117.39306,0 212.54931,94.57226 212.54931,211.22266 z" />
      <path
         inkscape:connector-curvature="0"
         id="path3360"
         style="fill:url(#radialGradient3354);fill-opacity:1;fill-rule:nonzero;stroke:none"
         d="m 179.34619,614.23047 c -9.24951,0 -8.21777,-1.00293 -16.43994,-2.04248 -27.74414,-3.11377 -54.43555,-11.4419 -78.06982,-25.97705 -21.58106,-13.50049 -35.12207,-28.42627 -52.58838,-46.07959 29.94384,-31.9751 91.59912,-4.7876 91.59912,-4.7876 7.19433,-1.03955 8.23779,-4.17773 17.4873,-4.17773 11.30323,0 6.17969,2.09961 17.4834,4.17773 l 8.22217,12.44482 3.08496,6.22071 4.08936,5.17627 -3.08594,14.58056 c -0.004,0 3.08594,0 3.08594,0 -1.02735,6.23243 -8.22998,11.41358 -14.39844,13.48828 l 0,2.09034 c 3.08642,1.03564 8.22607,4.13379 11.3125,4.13379 3.08203,0 5.13574,-2.09082 8.21777,-2.09082 5.14014,1.03906 6.1919,6.26123 15.44092,5.22168 6.16309,-1.03565 6.13867,-4.15821 9.2168,-8.31153 6.17187,-6.22851 6.17187,-1.06347 11.3125,-12.48926 -11.30469,-1.03906 -2.07129,-10.39062 -1.04786,-16.62304 1.03125,-3.11426 -1.00683,-5.14795 1.04786,-8.2666 1.03125,-2.07471 6.16308,-4.18213 8.22558,-5.22168 -3.08594,-4.15284 -4.13379,-4.13672 -9.27344,-5.17627 1.03125,-3.11475 2.09571,-7.27979 5.18067,-9.35498 3.08594,-1.03907 15.37988,1.05175 17.44336,2.0874 4.1084,2.07812 7.20996,6.22412 12.35156,6.22412 l 22.56641,-7.26758 c -3.07813,-6.229 -6.15625,-6.24121 -5.13282,-9.35547 0,-3.11767 4.14161,-6.23633 7.22754,-8.31152 12.32715,-7.27149 6.17188,-5.2002 11.30371,-9.35449 l 6.13868,-4.13379 c 2.04687,-2.07813 4.13379,-6.22803 7.21191,-7.26758 6.1709,-2.07471 5.11523,8.2832 4.09277,11.40137 8.21778,1.03564 14.40528,-4.11719 20.57618,-0.99903 5.13281,2.0752 5.11621,11.42578 12.31152,8.31201 6.15527,-2.0791 -0.0166,-9.38769 2.03809,-14.58056 1.03125,-3.11426 4.11718,-5.18945 6.17968,-7.26807 l 4.12598,-9.31054 c 3.08496,-3.11329 5.7168,-5.70459 9.82519,-11.93262 7.19434,16.61426 -12.9121,43.05957 -24.21582,53.44482 -5.13964,4.15381 -21.99023,54.95557 -24.05273,57.03467 -3.08594,4.15381 -20.12207,12.5542 -24.23145,14.63281 -14.38085,7.26758 -31.86523,12.46143 -47.27734,15.57569 -6.16309,1.03857 -23.63086,4.13281 -29.78516,4.13281 l -28.80029,0 m 23.93506,-64.53711 c -3.05762,1.02246 -7.1377,-4.06494 -9.17627,-5.08398 -6.11475,-5.09571 -8.13184,-2.0752 -10.17041,-5.13184 -3.05762,-2.03858 -6.12305,-9.15625 -2.04248,-10.17578 l 8.17334,0.99902 c 3.05762,0 4.07178,0.0244 7.12988,1.04785 -1.01953,-2.03857 -3.06201,-6.13916 -2.04297,-8.17773 2.03907,-3.05664 12.2461,3.07031 13.26075,4.08935 2.03808,4.07618 -2.06153,5.08741 -1.04786,14.25977 -4.07617,5.09521 -1.02148,7.1582 -4.08398,8.17334 m 51.18359,-65.44385 c -0.98339,0.14649 -2.0791,0.16699 -3.36132,-0.0889 -10.29688,-2.06298 -0.0166,-11.32373 2.04492,-18.53125 1.02344,-2.0581 1.05664,-5.14794 -0.99805,-6.17529 -2.0625,-2.05908 -5.17285,2.0586 -8.2666,3.08594 l -6.17969,1.00293 c -4.11719,2.0581 -8.23437,9.29394 -18.53125,5.17627 -9.26465,-4.12061 -1.03906,-11.34033 -1.03906,-16.48828 0,-3.08594 -3.06934,-5.16016 -5.13184,-7.21924 2.0625,-6.1792 4.10938,-4.08887 9.26465,-7.17822 4.11817,-2.0586 5.15723,-6.18848 7.21973,-7.21973 l 12.35937,-3.08936 c -4.12597,-9.26562 -8.25879,-11.33642 -7.22656,-22.66064 0,-2.06201 1.05566,-4.10449 2.09375,-5.13184 2.05469,-3.09033 9.24121,1.01514 11.30371,-4.13379 1.02344,-3.08935 -2.0625,-5.11181 -3.08496,-7.17431 -1.03125,-3.08594 -1.03125,-4.13281 0,-7.22656 2.05371,1.03906 7.20313,3.09375 9.25684,0 0,-1.02344 0,-2.05469 0,-3.08594 -1.02246,-1.02344 -4.1084,-2.0625 -6.17188,-3.08594 -7.20996,-4.12598 -4.1084,-7.22754 -15.44433,-7.22754 2.0625,-3.08594 5.13183,-8.2334 5.13183,-12.34277 -2.0625,-7.21094 -10.76758,-0.73145 -15.91601,-1.75488 -3.09375,-1.03907 -6.74024,-6.4961 -9.83399,-8.5586 l -27.15137,-13.78808 c -19.56543,-9.26563 -35.38085,-8.54297 -57.00537,-8.54297 7.20703,-9.25782 32.69678,-29.13672 45.05664,-30.17578 0,6.18847 0.0122,10.3291 4.12891,14.44628 1.03125,1.03125 2.03027,2.03907 4.08887,2.03907 1.03174,0 12.37109,0.0156 7.22314,7.22656 0,1.02344 -1.01513,1.01562 -2.04638,2.04687 l 8.22167,8.2168 7.21924,7.21973 -4.1289,-21.61719 9.26172,3.09473 13.39843,-3.09473 9.26563,-1.04687 c -2.0625,-7.20313 2.0625,-7.20313 6.17187,-12.35157 3.09375,-4.11718 3.10938,-6.14648 4.14063,-10.26465 14.06445,1.6084 26.13183,8.42188 33.96875,19.53028 1.03125,2.0625 1.01465,10.3291 2.03808,14.43847 1.03907,4.125 2.0625,14.4209 9.27344,12.35938 1.02344,0 2.05469,-1.05566 3.08496,-2.09473 10.29785,3.09278 3.11914,10.29688 -0.99804,15.44434 3.09375,1.03125 9.26562,1.03125 12.35156,3.08594 4.125,3.09375 2.0625,7.24316 3.08594,11.35254 0,4.125 2.04589,6.17187 2.04589,11.32031 0,5.13965 -4.10058,8.23437 -2.04589,12.34375 2.0625,5.14746 6.16308,0 11.31054,3.08398 3.09473,3.09473 0.009,5.18555 7.22071,11.36133 -2.05469,11.32422 3.08496,8.21777 3.08496,20.57275 -4.1084,2.0586 -4.1084,2.0586 -6.17188,6.17627 -3.08594,0 -7.21875,0 -10.3125,0 -3.08594,-1.02734 -5.14062,-3.07373 -9.25781,-2.04248 -5.14746,2.0586 -5.16406,7.17432 -7.22656,10.26465 -1.02344,1.03125 -4.11719,3.11817 -3.08692,5.17627 0,2.0586 7.22852,9.26563 1.04004,12.35547 -2.05371,1.02734 -4.125,-1.04736 -10.30469,-1.04736 1.03125,3.09033 6.21192,8.22217 5.17286,11.31201 0,3.08545 -3.10254,5.16016 -4.12598,7.21924 -7.21094,9.26513 -4.14063,10.32519 -17.53223,11.35156 -3.09277,0 -5.00976,1.70166 -7.94922,2.13574 z" />
      <path
         inkscape:connector-curvature="0"
         id="path3362"
         style="fill:#f4702a;fill-opacity:1;fill-rule:nonzero;stroke:none"
         d="m 353.50195,551.47998 -15.12011,4.82715 c 21.66601,-15.76611 41.02539,-41.55664 50.46093,-62.68164 -4.71093,39.78564 -32.7666,73.62012 -76.2998,86.81201 22.29883,-10.93848 35.9248,-20.48437 40.95898,-28.95752 z" />
      <path
         inkscape:connector-curvature="0"
         id="path3370"
         style="fill:url(#linearGradient3364);fill-opacity:1;fill-rule:nonzero;stroke:none"
         d="M 77.97803,423.39063 C 61.99707,416.63867 52.43115,399.0498 51.68018,379.75195 c 0.75097,-25.62793 13.39013,-46.06054 37.1958,-59.68652 18.87597,-11.68457 39.5957,-20.90918 60.72119,-26.69922 10.29687,-3.42773 20.19482,-3.31348 29.20556,-2.99707 -17.58984,5.89551 -33.53369,15.97363 -47.68798,30.33789 -8.90039,9.54199 -16.22461,21.00781 -21.79981,34.19629 -5.46875,18.98535 -7.2876,34.44629 -5.67627,46.46094 l 0,0.0933 c 0.42627,10.50781 4.80371,16.28955 13.16748,17.57666 -6.00537,0.53662 -10.1626,0.88965 -12.30615,0.99902 -1.9292,0.10547 -3.88184,0.21143 -5.81494,0.3169 -11.4458,0.59619 -9.41943,2.89062 -20.70703,3.04053 z" />
      <path
         inkscape:connector-curvature="0"
         id="path3372"
         style="fill:#ee531b;fill-opacity:1;fill-rule:nonzero;stroke:none"
         d="m 297.95801,561.3457 c -11.05176,2.03858 -21.02344,1.2876 -29.81836,-2.14355 63.05566,-24.87695 92.97949,-54.47608 89.54492,-88.68408 -4.6123,7.18261 -10.72754,11.90429 -18.55566,14.25976 9.65527,-37.53271 10.62207,-68.52099 2.79394,-92.9751 -5.35937,16.30176 -10.29687,26.0625 -14.69824,29.49268 6.12305,-50.29736 -2.14356,-87.50537 -24.76758,-111.73779 4.28711,14.7959 6.00879,26.91113 5.03418,36.46191 -26.58594,-39.79101 -56.82617,-60.37598 -90.72168,-61.66797 -13.39844,0.11426 -26.05469,2.14356 -37.95459,6.00977 -9.01074,-0.3252 -18.66162,1.17676 -28.95801,4.6123 -21.12597,5.79004 -41.06933,14.46973 -59.9458,26.16407 -23.80517,13.61816 -36.13574,33.24511 -36.88672,58.87402 0.75098,19.30224 9.11475,32.27441 25.0918,39.03076 1.07227,0.43018 2.25342,0.86035 3.43067,1.28711 5.79443,0.10937 11.47509,0.10937 17.15869,0 l 0,0 c 1.9331,-0.10596 3.86132,-0.21533 5.79052,-0.3208 2.14746,-0.10596 6.32911,-0.43018 12.33448,-0.96631 9.43652,-0.85644 20.26904,-3.00049 32.49023,-6.54102 2.03858,11.68897 -0.6416,23.91504 -8.03906,36.46094 0,0.10938 0,0.21485 0,0.21485 -1.93311,4.28759 -5.8999,8.14892 -12.11963,11.47412 -7.50781,19.08789 -9.5459,37.74853 -6.32617,55.979 l 0.10498,0.53613 -0.75098,0.75147 -34.84863,-1.18213 -57.91113,9.65088 C 15.70605,518.77393 4.01709,509.33838 -5.74414,497.96973 c -1.39307,-1.92823 -3.21582,-4.6084 -5.35986,-8.04395 l -0.10938,0 0.10938,-0.10547 c 6.51269,-13.1875 -20.21924,-74.61523 -12.76075,-106.56836 31.74268,-72.13476 79.88916,-96.48047 95.11963,-98.78613 47.02491,-55.56055 213.35254,-66.59668 257.48047,22.83398 l 23.85742,24.86524 c 19.11524,22.05566 22.5752,74.33105 24.18262,129.23828 0,0.3208 0,0.75098 0,1.17725 -13.62598,46.00683 -52.65332,86.75537 -31.74219,67.5625 -14.21972,28.78662 -46.32812,44.93066 -70.46191,51.25634 11.9043,-5.25341 19.7334,-12.00976 23.38672,-20.05371 z" />
      <path
         inkscape:connector-curvature="0"
         id="path3380"
         style="fill:url(#linearGradient3374);fill-opacity:1;fill-rule:nonzero;stroke:none"
         d="m 347.13574,390.9082 c 4.2793,-4.49804 9.90723,-4.61132 16.89063,-0.34082 6.52929,34.6875 1.68847,62.49951 -14.41407,83.3291 5.62793,-26.34716 4.73536,-53.93603 -2.47656,-82.98828 z" />
      <path
         inkscape:connector-curvature="0"
         id="path3392"
         style="fill:url(#linearGradient3382);fill-opacity:1;fill-rule:nonzero;stroke:none"
         d="m 398.79004,459.47803 c -3.64551,14.36914 -9.88281,23.96777 -17.60547,32.97412 1.60938,-5.2544 5.02637,-22.14942 3.8418,-30.94336 10.62207,-30.45606 11.48242,-65.08984 2.3623,-103.69922 11.90528,19.94434 21.77051,42.4668 29.70606,67.45361 -0.31739,-53.19384 -138.9834,-216.30127 -210.61426,-228.51416 l -27.23975,42.35547 c 40.53369,1.71289 77.85596,14.04883 111.96143,36.88379 0,0.11328 0.63379,0.42969 1.92383,1.07129 -4.6045,5.79785 -8.36328,10.19141 -11.14942,12.97656 -2.79297,2.89063 -8.89941,1.07227 -18.125,-5.57031 -12.8623,-7.73047 -23.59765,-12.87109 -32.27832,-15.12109 -18.66113,-15.5586 -41.07373,-20.38184 -67.34326,-14.69727 -13.29687,-0.10547 -26.91992,1.82617 -41.17871,5.89551 1.98926,-4.35254 4.66113,-5.87207 8.91943,-9.72949 -21.57959,5.45019 -44.47119,19.49023 -60.71582,33.65234 -8.05224,2.46875 -12.64843,3.3291 -27.56103,12.75684 l -0.21533,-0.10547 c -4.49512,0.74707 -57.15625,74.41601 -54.15625,117.10205 -3.32081,-4.29151 -6.9668,-17.90967 -11.04297,-40.63916 -1.18213,4.82324 -1.93311,10.07715 -2.25391,15.86719 0,0.21093 0,0.32421 0.10986,0.53613 -3.21972,31.20703 8.14844,58.01269 34.10205,80.42529 2.14356,6.75635 6.05762,15.39258 8.95264,21.07276 l -0.3208,0.75097 c -18.01514,-6.86133 -35.7666,-24.93017 -50.35107,-49.05957 -0.10547,-2.57471 0.10986,-5.03857 0.75097,-7.29297 l 13.29785,10.82959 c -4.82421,-12.11621 -8.04394,-24.98291 -9.65136,-38.60498 -4.93311,-44.71582 7.6167,-88.89941 37.85693,-132.53906 45.36133,-58.66211 102.41211,-90.08789 171.04248,-94.2627 68.63819,-4.07714 127.18701,21.22754 175.55225,75.70801 32.70215,40.10645 52.75195,82.04102 60.26172,125.8916 7.51269,30.13477 8.36523,56.19336 2.46972,78.06983 -2.03808,-15.65576 -4.2959,-23.69922 -6.54492,-24.23487 -0.6416,26.05811 -4.50781,49.33204 -11.68652,69.81153 4.18261,-22.19727 1.3164,-29.91211 -3.07715,-47.0708 z" />
      <path
         inkscape:connector-curvature="0"
         id="path3400"
         style="fill:url(#linearGradient3394);fill-opacity:1;fill-rule:nonzero;stroke:none"
         d="m 362.61328,322.95605 c -3.00488,-10.83203 -6.85351,-21.01464 -11.36816,-30.56445 l 7.40625,-19.40918 c 38.60449,48.36621 58.12597,99.08692 58.44336,152.28076 -7.93555,-24.98681 -17.80078,-47.50927 -29.70606,-67.45361 -7.51172,-12.65137 -15.76172,-24.23144 -24.77539,-34.85352 z" />
      <path
         inkscape:connector-curvature="0"
         id="path3410"
         style="fill:url(#linearGradient3402);fill-opacity:1;fill-rule:nonzero;stroke:none"
         d="m 352.33301,293.16309 c 4.56347,9.67089 8.47754,20 11.52246,30.9873 2.60644,9.57422 4.67773,19.67578 6.09082,30.33789 -7.39844,-9.34668 -14.57617,-18.05176 -21.74707,-26.20508 -6.30859,-7.17773 -12.61035,-13.80371 -18.70117,-20.00879 -12.50586,-12.39062 -24.57227,-22.7207 -36.10352,-30.66308 -1.2998,-0.64844 -1.95703,-0.97363 -1.95703,-1.08789 -34.57715,-23.15918 -72.41895,-35.66406 -113.52051,-37.40235 l 27.62207,-42.95703 c 72.63672,12.40723 121.56348,44.69532 146.79395,96.99903 z" />
      <path
         inkscape:connector-curvature="0"
         id="path3418"
         style="fill:url(#linearGradient3412);fill-opacity:1;fill-rule:nonzero;stroke:none"
         d="m 347.17676,327.0332 c 0.43066,5.89551 0.53613,11.69336 0.3164,17.15918 -0.53613,16.08594 -4.28808,31.09278 -11.36816,45.36035 0.97363,-28.94921 -3.96289,-53.94433 -14.90137,-75.06543 l 7.51172,-7.1875 c 6.00098,6.11524 12.2207,12.65235 18.44141,19.7334 z" />
      <path
         inkscape:connector-curvature="0"
         id="path3426"
         style="fill:url(#linearGradient3420);fill-opacity:1;fill-rule:nonzero;stroke:none"
         d="m 96.99268,537.43066 c -4.39795,-5.14404 -7.61768,-10.82812 -9.5459,-17.15429 -0.10547,-1.28662 -0.10547,-2.3584 -0.10547,-3.54053 7.93359,-11.15332 19.62353,-10.82861 34.84863,1.18213 0.43018,0.21045 0.75098,0.53516 1.07227,0.74658 1.82275,9.76074 4.82763,18.12549 9.11523,25.31201 l 0.96582,0.85645 c 4.29199,7.07715 12.54639,14.68994 24.66602,22.83887 -22.52198,-2.78565 -42.89649,-12.86719 -61.0166,-30.24122 z" />
      <path
         inkscape:connector-curvature="0"
         id="path3434"
         style="fill:url(#linearGradient3428);fill-opacity:1;fill-rule:nonzero;stroke:none"
         d="m 122.94092,516.63037 -0.10498,0 c -3.21973,-18.23047 -1.18164,-36.89111 6.32617,-55.979 11.68848,6.97168 25.73779,13.19189 42.25049,18.44629 -3.00098,4.9331 -9.22071,9.32617 -18.65674,13.1875 -3.32568,0.96679 -7.50732,3.86132 -12.65625,8.79492 l -13.1919,12.8667 -3.96679,3.10986 c 0,-0.10547 0,-0.21094 0,-0.42627 z" />
      <path
         inkscape:connector-curvature="0"
         id="path3442"
         style="fill:url(#linearGradient3436);fill-opacity:1;fill-rule:nonzero;stroke:none"
         d="m 129.16211,460.65137 c 6.21973,-3.3252 10.18652,-7.18653 12.11963,-11.47412 11.47412,10.61767 21.66113,18.33642 30.3457,23.26904 3.86133,2.03857 6.11133,5.14892 6.86231,9.33105 -1.39258,-1.28711 -3.75196,-2.14355 -7.07715,-2.67968 -16.5127,-5.2544 -30.56201,-11.47461 -42.25049,-18.44629 z" />
      <path
         inkscape:connector-curvature="0"
         id="path3444"
         style="fill:#100f0d;fill-opacity:1;fill-rule:nonzero;stroke:none"
         d="m 152.86133,492.60986 -0.10547,-0.3247 c 9.43603,-3.86133 15.65576,-8.2544 18.65674,-13.1875 3.32519,0.53613 5.68457,1.39257 7.07715,2.67968 0.10937,0.10547 0.21484,0.21485 0.32519,0.21485 l 0.10498,0.10547 c 0.10547,0.11035 0.3208,0.3247 0.43018,0.43115 2.24951,3.32471 1.49804,6.00537 -2.35938,8.36377 -8.04248,-0.43018 -16.08642,0.10498 -24.12939,1.71728 z" />
      <path
         inkscape:connector-curvature="0"
         id="path3452"
         style="fill:url(#linearGradient3446);fill-opacity:1;fill-rule:nonzero;stroke:none"
         d="m 98.70557,420.32959 0,0 c -8.36377,-9.00537 -13.08203,-12.97266 -14.15381,-12.01025 -2.46875,0.10937 -4.61231,3.64599 -6.43555,10.72314 -0.53613,-43.10791 7.50733,-72.06494 24.23584,-86.96631 -16.08642,29.06348 -17.26465,58.44336 -3.64648,88.25342 z" />
      <path
         inkscape:connector-curvature="0"
         id="path3454"
         style="fill:#ee531b;fill-opacity:1;fill-rule:nonzero;stroke:none"
         d="m 103.63867,401.34814 0,0 c -1.60742,-12.01416 0.21582,-27.45166 5.68457,-46.42919 21.98242,-13.72364 46.54248,-18.01954 73.88428,-12.8711 7.93799,2.03809 15.12451,4.92969 21.66553,9.00586 5.8955,3.9707 11.04297,3.6543 15.12011,-0.86133 3.75196,1.39649 7.292,1.292 10.72754,-0.31543 7.07325,0.96485 9.53321,4.71778 7.17871,11.04297 -3.42773,4.71875 -8.57519,9.00586 -15.22656,12.75684 -14.47851,7.51172 -29.59912,6.33496 -45.36084,-3.6377 -15.01513,-8.47754 -29.48926,-8.15332 -43.5376,0.86035 -9.22509,6.31836 -18.125,14.7959 -26.70459,25.41016 l -3.43115,5.03857 z" />
      <path
         inkscape:connector-curvature="0"
         id="path3462"
         style="fill:url(#linearGradient3456);fill-opacity:1;fill-rule:nonzero;stroke:none"
         d="m 202.83496,364.67969 c 0.10547,0 0.20996,0 0.20996,0 0.86133,0 1.60938,0 2.14453,0.0976 5.47364,-0.0976 9.76172,-1.38867 12.65235,-3.96289 3.65429,-5.35937 8.37207,-7.29199 14.26758,-5.8955 5.36718,1.17773 6,3.96289 1.93261,8.25097 -7.61719,6.33301 -15.66504,10.50684 -24.24023,12.55371 -9.00488,0.85254 -23.69531,-4.40136 -44.17871,-15.76953 18.98144,3.65332 31.31201,5.26074 37.21191,4.72559 z" />
      <path
         inkscape:connector-curvature="0"
         id="path3472"
         style="fill:url(#linearGradient3464);fill-opacity:1;fill-rule:nonzero;stroke:none"
         d="m 46.14551,495.93945 c -4.21778,2.50879 -9.57764,5.01807 -16.1919,7.6416 -3.30517,1.14063 -6.84131,2.39502 -10.71923,3.64991 -11.85547,-4.22266 -22.12012,-9.92334 -30.89795,-17.10596 -0.11426,0 -0.22754,-0.11328 -0.22754,-0.22754 -0.11377,0 -0.11377,-0.11328 -0.11377,-0.11328 -0.11817,-0.11328 -0.23145,-0.22754 -0.23145,-0.4585 -2.50537,-3.87402 -5.92773,-9.68798 -10.26074,-17.55664 -6.84131,-12.20166 -8.80176,-22.33593 -9.14307,-31 15.50586,25.65284 31.14991,42.05957 50.30664,49.35596 0,0.11377 0.11329,0.11377 0.22705,0.11377 0.22754,0.11426 0.45411,0.22754 0.79932,0.22754 -0.11719,0 -0.11719,0 -0.11719,-0.11328 9.00928,2.39502 17.10596,3.30859 24.17481,2.96777 l 7.2959,-0.7998 c -1.36817,1.14062 -2.96387,2.27734 -4.90088,3.41845 z" />
      <path
         inkscape:connector-curvature="0"
         id="path3480"
         style="fill:url(#linearGradient3474);fill-opacity:1;fill-rule:nonzero;stroke:none"
         d="m 43.69385,533.89404 0.10547,0.10645 C 30.93213,539.89941 22.24756,556.7373 18.06543,584.29395 1.65771,568.21143 -6.27979,539.46924 -5.74414,497.96973 l 49.43799,35.92431 z" />
      <path
         inkscape:connector-curvature="0"
         id="path3488"
         style="fill:url(#linearGradient3482);fill-opacity:1;fill-rule:nonzero;stroke:none"
         d="m -23.86475,389.9834 c -0.10986,-0.21192 -0.10986,-0.3252 -0.10986,-0.53613 0.3208,-5.79004 1.07178,-11.04395 2.25391,-15.86719 4.07617,22.72949 7.72216,36.34765 11.04297,40.63916 -3,-42.68604 -0.31983,-74.20947 8.04394,-94.36377 l -0.9668,6.9668 -0.10498,0 c -0.10547,0.53613 -0.21582,1.07128 -0.21582,1.60839 -0.10547,0.42188 -0.10547,0.74707 -0.10547,1.07129 l -0.43017,2.25782 0.10937,0 c -1.39648,12.74902 -1.07568,24.7666 0.74707,36.13574 l 0.11036,0.3164 c 2.14355,14.26856 4.71777,24.98731 7.71826,32.2793 2.14746,-14.25976 6.75586,-27.77148 13.8374,-40.64258 2.14355,-3.97168 4.6084,-7.93457 7.29199,-11.7998 -12.76123,29.07129 -14.69433,56.83935 -5.89941,83.11328 0.21484,1.17725 0.53564,2.25342 0.75097,3.32519 2.57422,9.542 6.11084,18.65674 10.82862,27.23682 -34.31299,-22.4126 -51.58106,-47.39941 -54.90235,-71.74072 z" />
      <path
         inkscape:connector-curvature="0"
         id="path3496"
         style="fill:url(#linearGradient3490);fill-opacity:1;fill-rule:nonzero;stroke:none"
         d="m 62.56543,474.3916 -16.05859,10.30127 c -6.20362,-7.42236 -11.40918,-15.06348 -15.7295,-23.03857 -4.87158,-8.85889 -8.52588,-18.271 -11.18164,-28.12891 -0.22265,-1.10791 -0.55566,-2.21338 -0.77539,-3.43115 -2.10742,-9.19238 -3.21142,-18.82764 -3.43506,-28.90479 11.85254,35.32813 27.57764,59.80371 47.18018,73.20215 z" />
      <path
         inkscape:connector-curvature="0"
         id="path3504"
         style="fill:url(#linearGradient3498);fill-opacity:1;fill-rule:nonzero;stroke:none"
         d="m 18.08154,489.50781 c -3.06591,-6.01758 -5.67627,-12.60302 -7.9458,-19.75293 -2.49707,-7.49511 -4.20263,-15.55517 -5.1084,-23.95556 12.48536,20.20752 25.08887,35.99023 37.6919,47.6831 -7.04102,0.3374 -15.1001,-0.56787 -24.06983,-2.95556 -0.11328,-0.11329 -0.11328,-0.22754 -0.22656,-0.33692 -0.11377,-0.22705 -0.22803,-0.45459 -0.34131,-0.68213 z" />
      <path
         inkscape:connector-curvature="0"
         id="path3512"
         style="fill:url(#linearGradient3506);fill-opacity:1;fill-rule:nonzero;stroke:none"
         d="m -3.38477,367.89551 -0.21582,0 c -1.82275,-11.36914 -2.14355,-23.38672 -0.74707,-36.13574 l 0.10547,0 c 0.3208,-1.08008 0.6416,-2.15235 1.07178,-3.22461 9.5459,-28.63282 23.16406,-46.96875 40.64355,-55.01563 -13.29736,14.69727 -22.30664,30.56543 -27.23584,47.8291 -6.75634,12.8711 -11.26367,28.3086 -13.62207,46.54688 z" />
      <path
         inkscape:connector-curvature="0"
         id="path3522"
         style="fill:url(#linearGradient3514);fill-opacity:1;fill-rule:nonzero;stroke:none"
         d="m 56.56055,316.52539 c 0,3.96289 0.32422,7.72266 1.07226,11.36816 -2.78564,-3.6455 -5.79052,-6.00878 -8.68554,-6.86914 -3.21582,-0.95898 -6.75635,1.82715 -11.04395,8.58301 -0.43018,-11.36035 1.39258,-22.19336 5.79053,-32.38476 6.32519,-14.80371 17.69433,-28.52735 34.31738,-40.96778 -1.39697,2.14453 -2.57519,4.19043 -3.75635,6.22071 -4.39697,7.40625 -7.82812,14.58398 -10.61767,21.4541 -0.10547,0.21094 -0.21094,0.42187 -0.21094,0.63379 -4.39746,11.15722 -6.65088,21.55957 -6.86572,31.10156 0,0.32422 0,0.53516 0,0.86035 z" />
      <path
         inkscape:connector-curvature="0"
         id="path3530"
         style="fill:url(#linearGradient3524);fill-opacity:1;fill-rule:nonzero;stroke:none"
         d="m 28.99902,295.18457 c 5.2583,-12.65137 23.48877,-33.78125 41.82471,-45.68555 l -5.89941,6.97461 C 54.52637,269.23145 48.375,273.87695 44.51807,288.25 c -7.93799,6.10645 -12.93994,14.03125 -20.01709,24.32813 2.78955,-10.94532 1.81884,-9.45118 4.49804,-17.39356 z" />
      <path
         inkscape:connector-curvature="0"
         id="path3540"
         style="fill:url(#linearGradient3532);fill-opacity:1;fill-rule:nonzero;stroke:none"
         d="m 63.42627,284.56348 c 0,-0.21192 0.10547,-0.42285 0.21094,-0.63379 3.32568,-3.21582 7.18652,-5.79785 11.68945,-7.94141 1.07617,-0.42285 2.25342,-0.95898 3.43555,-1.39746 -2.68408,3.00488 -5.2583,6.33496 -7.50733,9.875 -6.00537,8.78613 -10.83349,19.19629 -14.69433,31.19922 0.21484,-9.54199 2.46826,-19.94434 6.86572,-31.10156 z" />
      <path
         inkscape:connector-curvature="0"
         id="path3548"
         style="fill:url(#linearGradient3542);fill-opacity:1;fill-rule:nonzero;stroke:none"
         d="m 220.09863,350.0957 -0.10547,0.0967 c -4.07714,4.51563 -9.49316,6.15625 -15.12011,0.86133 -6.54102,-4.07617 -14.51953,-6.1709 -22.45703,-8.21777 -27.3462,-5.14063 -51.11036,-1.64063 -73.09278,12.08301 5.5752,-13.1875 12.69678,-24.92969 21.59668,-34.4795 22.19727,-1.93261 42.42529,1.875 60.22559,10.88184 l 28.95312,18.77441 z" />
      <path
         inkscape:connector-curvature="0"
         id="path3560"
         style="fill:url(#linearGradient3550);fill-opacity:1;fill-rule:nonzero;stroke:none"
         d="m 125.19531,238.34961 c -19.62353,11.05176 -36.24658,23.48437 -49.86865,37.63867 -4.50293,2.14356 -8.36377,4.72559 -11.68945,7.94141 2.78955,-6.87012 6.2207,-14.04785 10.61767,-21.4541 12.8711,-10.29688 29.81397,-18.33594 50.94043,-24.12598 z" />
      <path
         inkscape:connector-curvature="0"
         id="path3568"
         style="fill:url(#linearGradient3562);fill-opacity:1;fill-rule:nonzero;stroke:none"
         d="m 231.57324,269.34473 c 2.24903,1.81933 4.39258,3.85742 6.53614,6.00195 -29.37891,-12.66016 -57.47168,-11.7998 -84.39161,2.67969 6.54151,-5.46582 8.2583,-9.43653 5.14893,-11.68555 -3.00098,-2.57422 -10.40234,-3.3291 -21.98291,-2.46875 9.54199,-4.18262 18.65674,-7.29199 27.34619,-9.22461 26.26953,-5.68457 48.68213,-0.86133 67.34326,14.69727 z" />
      <path
         inkscape:connector-curvature="0"
         id="path3576"
         style="fill:url(#linearGradient3570);fill-opacity:1;fill-rule:nonzero;stroke:none"
         d="m 87.44678,520.27637 c 1.92822,6.32617 5.14795,12.01025 9.5459,17.15429 -15.01465,5.47413 -32.81495,4.292 -53.29883,-3.53662 l -2.46875,-1.82275 c -4.07276,-1.71777 -7.93408,-3.646 -11.79492,-5.68457 14.04834,-9.43555 33.24511,-12.65137 57.91113,-9.65088 0,1.18213 0,2.25391 0.10547,3.54053 z" />
      <path
         inkscape:connector-curvature="0"
         id="path3584"
         style="fill:url(#linearGradient3578);fill-opacity:1;fill-rule:nonzero;stroke:none"
         d="m 338.38184,556.30713 15.12011,-4.82715 c -5.03418,8.47315 -18.66015,18.01904 -40.95898,28.95752 -18.66211,5.57422 -40.86328,8.79004 -66.49024,9.54102 11.25391,-2.24903 20.80372,-5.03858 28.51856,-8.57911 24.13379,-6.32568 47.61914,-23.375 70.46191,-51.25634 -20.91113,19.19287 -41.29297,28.52343 -61.02539,27.88134 48.1543,-17.58837 79.1416,-51.41064 92.76758,-97.41357 0.10645,5.68457 6.00195,7.3335 8.25098,0.89795 1.18457,8.79394 1.07129,15.76562 -0.53614,21.02002 7.73047,-9.00977 13.30176,-20.58985 16.94825,-34.95899 4.39257,17.1587 4.61132,36.78174 0.42871,58.97901 0,0.10547 -0.11328,0.3208 -0.20996,0.53564 -5.58789,15.98145 -13.19532,30.24121 -22.73828,42.89649 5.8955,-23.16309 7.93359,-39.5708 6.2207,-49.4375 -0.11328,0.21582 -0.20996,0.3208 -0.20996,0.53662 -9.44531,21.12549 -24.88184,39.46094 -46.54785,55.22705 z" />
      <path
         inkscape:connector-curvature="0"
         id="path3592"
         style="fill:url(#linearGradient3586);fill-opacity:1;fill-rule:nonzero;stroke:none"
         d="m 376.88184,463.60791 c 0,-0.43506 0,-0.86963 0,-1.19824 -1.63282,-55.82813 -11.55664,-95.521 -29.77051,-119.18408 0.21972,-5.55469 0.10644,-11.4502 -0.33301,-17.44336 7.20313,8.17773 14.39844,16.89941 21.81152,26.27832 -1.41308,-10.68653 -3.49121,-20.8291 -6.10644,-30.41895 9.16015,10.79199 17.55762,22.56641 25.18945,35.4375 9.27344,39.25049 8.39649,74.47266 -2.39551,105.44043 -2.28906,6.54102 -5.01757,12.75684 -8.17675,18.97363 0,-6.21679 -0.11329,-12.10351 -0.21875,-17.88525 z" />
      <path
         inkscape:connector-curvature="0"
         id="path3600"
         style="fill:url(#linearGradient3594);fill-opacity:1;fill-rule:nonzero;stroke:none"
         d="m -4.34766,367.89551 c 2.35938,-18.23828 7.82862,-33.67578 14.58496,-46.54688 5.35938,-10.07715 12.01026,-18.66015 20.04932,-25.7334 3.3252,-2.89941 6.75635,-5.46582 10.51172,-7.82812 -10.29639,11.5791 -16.94336,22.84277 -19.73291,33.77246 l 0.3208,-1.28223 c -0.21045,0.32422 -0.3208,0.86036 -0.42578,1.18555 -3.97119,11.68555 -4.93359,24.44238 -2.89502,38.38574 -7.08154,12.8711 -11.68994,28.31543 -13.8374,42.57569 -3.00049,-7.29297 -8.44092,-25.7417 -8.57569,-34.52881 z" />
    </g>
  </g>
</svg>
