<?xml version="1.0" encoding="UTF-8" standalone="no"?>
<!-- Created with Inkscape (http://www.inkscape.org/) -->

<svg
   xmlns:dc="http://purl.org/dc/elements/1.1/"
   xmlns:cc="http://creativecommons.org/ns#"
   xmlns:rdf="http://www.w3.org/1999/02/22-rdf-syntax-ns#"
   xmlns:svg="http://www.w3.org/2000/svg"
   xmlns="http://www.w3.org/2000/svg"
   xmlns:sodipodi="http://sodipodi.sourceforge.net/DTD/sodipodi-0.dtd"
   xmlns:inkscape="http://www.inkscape.org/namespaces/inkscape"
   version="1.0"
   width="53.8125"
   height="53.8125"
   id="svg2"
   xml:space="preserve"
   inkscape:version="0.91 r13725"
   sodipodi:docname="udes-logo.svg"><metadata
     id="metadata32"><rdf:RDF><cc:Work
         rdf:about=""><dc:format>image/svg+xml</dc:format><dc:type
           rdf:resource="http://purl.org/dc/dcmitype/StillImage" /><dc:title></dc:title></cc:Work></rdf:RDF></metadata><sodipodi:namedview
     pagecolor="#ffffff"
     bordercolor="#666666"
     borderopacity="1"
     objecttolerance="10"
     gridtolerance="10"
     guidetolerance="10"
     inkscape:pageopacity="0"
     inkscape:pageshadow="2"
     inkscape:window-width="1920"
     inkscape:window-height="1028"
     id="namedview30"
     showgrid="false"
     fit-margin-top="0"
     fit-margin-left="0"
     fit-margin-right="0"
     fit-margin-bottom="0"
     inkscape:zoom="0.76377953"
     inkscape:cx="190.5"
     inkscape:cy="28.8125"
     inkscape:window-x="-8"
     inkscape:window-y="-8"
     inkscape:window-maximized="1"
     inkscape:current-layer="svg2" /><defs
     id="defs5"><clipPath
       id="clipPath19"><path
         d="m 0,0 3039.31,0 0,479.281 L 0,479.281 0,0 Z"
         id="path21"
         inkscape:connector-curvature="0" /></clipPath></defs><path
     d="M 23.875,0 0,0.03125 0,53.8125 l 27.625,0 26.1875,0 0,-53.78125 -29.9375,0 0,-0.03125 z"
     id="path2891"
     style="fill:#00784b;fill-opacity:1;fill-rule:nonzero;stroke:none"
     inkscape:connector-curvature="0" /><path
     d="m 18.4375,9.25 5,0 0.84375,0 5.5625,0 0,1.46875 c 0,3.251875 2.65375,5.90625 5.90625,5.90625 3.252875,0 5.875,-2.654375 5.875,-5.90625 l 0,-1.46875 2.9375,0 0,5.875 c 0,4.879 -3.933125,8.84375 -8.8125,8.84375 -4.8785,0 -8.84375,-3.96475 -8.84375,-8.84375 l 0,-3.65625 0,-0.03125 c -3.86225,0 -7,3.13775 -7,7 0,3.614375 2.763125,6.602 6.28125,6.96875 l 9.4375,0.78125 0.0625,0 c 4.938497,0.16439 8.90625,4.209448 8.90625,9.1875 0,5.0825 -4.136625,9.21875 -9.21875,9.21875 l -8.375,0 -3.03125,0 0,-1.5 c 0,-3.252425 -2.621625,-5.875 -5.875,-5.875 -3.252,0 -5.90625,2.622575 -5.90625,5.875 l 0,1.5 -2.9375,0 0,-5.90625 c 0,-4.878875 3.964375,-8.8125 8.84375,-8.8125 4.878875,0 8.8125,3.933625 8.8125,8.8125 l 0,3.6875 c 3.862375,0 7,-3.13775 7,-7 0,-3.734875 -2.958,-6.784625 -6.65625,-6.96875 L 17.8125,27.625 C 13.02725,27.297875 9.25,23.30575 9.25,18.4375 9.25,13.3555 13.355,9.25 18.4375,9.25 Z"
     id="path23"
     style="fill:#ffffff;fill-opacity:1;fill-rule:nonzero;stroke:none"
     inkscape:connector-curvature="0" /></svg>